<svg width="0" height="0" class="hidden">
  <symbol version="1.1" id="dark" xmlns="http://www.w3.org/2000/svg" xmlns:xlink="http://www.w3.org/1999/xlink" x="0px" y="0px" xml:space="preserve" viewBox="0 0 206.622 206.622">
    <g>
      <g>
        <g>
          <path d="M155.287,58.38c-6.703-7.189-14.65-12.775-23.62-16.603c-1.299-0.552-2.8-0.291-3.83,0.672
				c-1.034,0.963-1.4,2.443-0.94,3.777c8.128,23.444,1.654,49.524-16.485,66.441c-18.146,16.918-44.614,21.557-67.43,11.812
				c-1.288-0.55-2.8-0.291-3.83,0.672c-1.034,0.963-1.4,2.443-0.94,3.777c3.197,9.218,8.215,17.535,14.918,24.72
				c12.721,13.643,29.996,21.517,48.64,22.168c0.836,0.03,1.668,0.043,2.5,0.043c17.728,0,34.54-6.611,47.571-18.764
				c13.647-12.724,21.517-29.998,22.168-48.643C174.658,89.807,168.011,72.025,155.287,58.38z M166.883,108.203
				c-0.585,16.74-7.655,32.251-19.905,43.675c-12.25,11.423-28.223,17.425-44.959,16.809c-16.743-0.583-32.252-7.652-43.674-19.904
				c-4.21-4.511-7.678-9.519-10.363-14.947c23.47,6.872,49.127,0.987,67.291-15.952c18.167-16.941,25.828-42.13,20.608-66.02
				c5.23,3.057,9.984,6.867,14.19,11.382C161.496,75.496,167.465,91.464,166.883,108.203z"></path>
          <path d="M167.607,163.757c-1.393-1.393-3.649-1.393-5.042,0s-1.393,3.649,0,5.042l7.563,7.563
				c0.696,0.696,1.609,1.045,2.521,1.045c0.912,0,1.825-0.348,2.521-1.045c1.393-1.393,1.393-3.649,0-5.042L167.607,163.757z"></path>
          <path d="M170.128,30.259l-7.563,7.565c-1.393,1.393-1.393,3.651,0,5.042c0.696,0.696,1.609,1.045,2.521,1.045
				s1.825-0.348,2.521-1.045l7.563-7.565c1.393-1.393,1.393-3.651,0-5.042C173.777,28.866,171.521,28.866,170.128,30.259z"></path>
          <path d="M103.311,188.793c-1.971,0-3.566,1.597-3.566,3.566v10.697c0,1.969,1.595,3.566,3.566,3.566
				c1.971,0,3.566-1.597,3.566-3.566v-10.697C106.877,190.39,105.282,188.793,103.311,188.793z"></path>
          <path d="M201.371,99.745h-10.697c-1.971,0-3.566,1.597-3.566,3.566c0,1.969,1.595,3.566,3.566,3.566h10.697
				c1.971,0,3.566-1.597,3.566-3.566C204.937,101.342,203.341,99.745,201.371,99.745z"></path>
          <path d="M39.015,42.866c0.696,0.696,1.609,1.045,2.521,1.045s1.825-0.348,2.521-1.045c1.393-1.391,1.393-3.649,0-5.042
				l-7.563-7.565c-1.393-1.393-3.649-1.393-5.042,0c-1.393,1.391-1.393,3.649,0,5.042L39.015,42.866z"></path>
          <path d="M39.015,163.757l-7.563,7.563c-1.393,1.393-1.393,3.649,0,5.042c0.696,0.696,1.609,1.045,2.521,1.045
				c0.912,0,1.825-0.348,2.521-1.045l7.563-7.563c1.393-1.393,1.393-3.649,0-5.042C42.664,162.364,40.408,162.364,39.015,163.757z"></path>
          <path d="M103.311,17.829c1.971,0,3.566-1.597,3.566-3.566V3.566c0-1.969-1.595-3.566-3.566-3.566
				c-1.971,0-3.566,1.597-3.566,3.566v10.697C99.745,16.232,101.34,17.829,103.311,17.829z"></path>
          <path d="M15.949,99.745H5.251c-1.971,0-3.566,1.597-3.566,3.566c0,1.969,1.595,3.566,3.566,3.566h10.697
				c1.971,0,3.566-1.597,3.566-3.566C19.514,101.342,17.919,99.745,15.949,99.745z"></path>
        </g>
      </g>
    </g>
    <g></g>
    <g></g>
    <g></g>
    <g></g>
    <g></g>
    <g></g>
    <g></g>
    <g></g>
    <g></g>
    <g></g>
    <g></g>
    <g></g>
    <g></g>
    <g></g>
    <g></g>
  </symbol>
  <symbol version="1.1" xmlns="http://www.w3.org/2000/svg" xmlns:xlink="http://www.w3.org/1999/xlink" enable-background="new 0 0 512 512" viewBox="0 0 512 512" id="light">
    <g>
      <g>
        <path d="m256,105.5c-83.9,0-152.2,68.3-152.2,152.2 0,83.9 68.3,152.2 152.2,152.2 83.9,0 152.2-68.3 152.2-152.2 0-84-68.3-152.2-152.2-152.2zm0,263.5c-61.4,0-111.4-50-111.4-111.4 0-61.4 50-111.4 111.4-111.4 61.4,0 111.4,50 111.4,111.4 0,61.4-50,111.4-111.4,111.4z"></path>
        <path d="m256,74.8c11.3,0 20.4-9.1 20.4-20.4v-23c0-11.3-9.1-20.4-20.4-20.4-11.3,0-20.4,9.1-20.4,20.4v23c2.84217e-14,11.3 9.1,20.4 20.4,20.4z"></path>
        <path d="m256,437.2c-11.3,0-20.4,9.1-20.4,20.4v22.9c0,11.3 9.1,20.4 20.4,20.4 11.3,0 20.4-9.1 20.4-20.4v-22.9c0-11.2-9.1-20.4-20.4-20.4z"></path>
        <path d="m480.6,235.6h-23c-11.3,0-20.4,9.1-20.4,20.4 0,11.3 9.1,20.4 20.4,20.4h23c11.3,0 20.4-9.1 20.4-20.4 0-11.3-9.1-20.4-20.4-20.4z"></path>
        <path d="m54.4,235.6h-23c-11.3,0-20.4,9.1-20.4,20.4 0,11.3 9.1,20.4 20.4,20.4h22.9c11.3,0 20.4-9.1 20.4-20.4 0.1-11.3-9.1-20.4-20.3-20.4z"></path>
        <path d="M400.4,82.8L384.1,99c-8,8-8,20.9,0,28.9s20.9,8,28.9,0l16.2-16.2c8-8,8-20.9,0-28.9S408.3,74.8,400.4,82.8z"></path>
        <path d="m99,384.1l-16.2,16.2c-8,8-8,20.9 0,28.9 8,8 20.9,8 28.9,0l16.2-16.2c8-8 8-20.9 0-28.9s-20.9-7.9-28.9,0z"></path>
        <path d="m413,384.1c-8-8-20.9-8-28.9,0-8,8-8,20.9 0,28.9l16.2,16.2c8,8 20.9,8 28.9,0 8-8 8-20.9 0-28.9l-16.2-16.2z"></path>
        <path d="m99,127.9c8,8 20.9,8 28.9,0 8-8 8-20.9 0-28.9l-16.2-16.2c-8-8-20.9-8-28.9,0-8,8-8,20.9 0,28.9l16.2,16.2z"></path>
      </g>
    </g>
  </symbol>
  <symbol version="1.1" id="linkedin" xmlns="http://www.w3.org/2000/svg" xmlns:xlink="http://www.w3.org/1999/xlink" x="0px" y="0px" xml:space="preserve" viewBox="0 0 552.77 552.77">
    <g>
      <g>
        <path d="M17.95,528.854h71.861c9.914,0,17.95-8.037,17.95-17.951V196.8c0-9.915-8.036-17.95-17.95-17.95H17.95
			C8.035,178.85,0,186.885,0,196.8v314.103C0,520.816,8.035,528.854,17.95,528.854z"></path>
        <path d="M17.95,123.629h71.861c9.914,0,17.95-8.036,17.95-17.95V41.866c0-9.914-8.036-17.95-17.95-17.95H17.95
			C8.035,23.916,0,31.952,0,41.866v63.813C0,115.593,8.035,123.629,17.95,123.629z"></path>
        <path d="M525.732,215.282c-10.098-13.292-24.988-24.223-44.676-32.791c-19.688-8.562-41.42-12.846-65.197-12.846
			c-48.268,0-89.168,18.421-122.699,55.27c-6.672,7.332-11.523,5.729-11.523-4.186V196.8c0-9.915-8.037-17.95-17.951-17.95h-64.192
			c-9.915,0-17.95,8.035-17.95,17.95v314.103c0,9.914,8.036,17.951,17.95,17.951h71.861c9.915,0,17.95-8.037,17.95-17.951V401.666
			c0-45.508,2.748-76.701,8.244-93.574c5.494-16.873,15.66-30.422,30.488-40.649c14.83-10.227,31.574-15.343,50.24-15.343
			c14.572,0,27.037,3.58,37.393,10.741c10.355,7.16,17.834,17.19,22.436,30.104c4.604,12.912,6.904,41.354,6.904,85.33v132.627
			c0,9.914,8.035,17.951,17.949,17.951h71.861c9.914,0,17.949-8.037,17.949-17.951V333.02c0-31.445-1.982-55.607-5.941-72.48
			S535.836,228.581,525.732,215.282z"></path>
      </g>
    </g>
    <g></g>
    <g></g>
    <g></g>
    <g></g>
    <g></g>
    <g></g>
    <g></g>
    <g></g>
    <g></g>
    <g></g>
    <g></g>
    <g></g>
    <g></g>
    <g></g>
    <g></g>
  </symbol>
  <symbol version="1.1" id="twitter" xmlns="http://www.w3.org/2000/svg" xmlns:xlink="http://www.w3.org/1999/xlink" x="0px" y="0px" xml:space="preserve" viewBox="0 0 310 310">
    <g id="XMLID_826_">
      <path id="XMLID_827_" d="M302.973,57.388c-4.87,2.16-9.877,3.983-14.993,5.463c6.057-6.85,10.675-14.91,13.494-23.73
		c0.632-1.977-0.023-4.141-1.648-5.434c-1.623-1.294-3.878-1.449-5.665-0.39c-10.865,6.444-22.587,11.075-34.878,13.783
		c-12.381-12.098-29.197-18.983-46.581-18.983c-36.695,0-66.549,29.853-66.549,66.547c0,2.89,0.183,5.764,0.545,8.598
		C101.163,99.244,58.83,76.863,29.76,41.204c-1.036-1.271-2.632-1.956-4.266-1.825c-1.635,0.128-3.104,1.05-3.93,2.467
		c-5.896,10.117-9.013,21.688-9.013,33.461c0,16.035,5.725,31.249,15.838,43.137c-3.075-1.065-6.059-2.396-8.907-3.977
		c-1.529-0.851-3.395-0.838-4.914,0.033c-1.52,0.871-2.473,2.473-2.513,4.224c-0.007,0.295-0.007,0.59-0.007,0.889
		c0,23.935,12.882,45.484,32.577,57.229c-1.692-0.169-3.383-0.414-5.063-0.735c-1.732-0.331-3.513,0.276-4.681,1.597
		c-1.17,1.32-1.557,3.16-1.018,4.84c7.29,22.76,26.059,39.501,48.749,44.605c-18.819,11.787-40.34,17.961-62.932,17.961
		c-4.714,0-9.455-0.277-14.095-0.826c-2.305-0.274-4.509,1.087-5.294,3.279c-0.785,2.193,0.047,4.638,2.008,5.895
		c29.023,18.609,62.582,28.445,97.047,28.445c67.754,0,110.139-31.95,133.764-58.753c29.46-33.421,46.356-77.658,46.356-121.367
		c0-1.826-0.028-3.67-0.084-5.508c11.623-8.757,21.63-19.355,29.773-31.536c1.237-1.85,1.103-4.295-0.33-5.998
		C307.394,57.037,305.009,56.486,302.973,57.388z"></path>
    </g>
    <g></g>
    <g></g>
    <g></g>
    <g></g>
    <g></g>
    <g></g>
    <g></g>
    <g></g>
    <g></g>
    <g></g>
    <g></g>
    <g></g>
    <g></g>
    <g></g>
    <g></g>
  </symbol>
  <symbol xmlns="http://www.w3.org/2000/svg" viewBox="0 0 24 24" id="whatsapp">
    <path d="m15.271 13.21c.578.185 1.078.416 1.543.7l-.031-.018c.529.235.986.51 1.403.833l-.015-.011c.02.061.032.13.032.203 0 .011 0 .021-.001.032v-.001c-.015.429-.11.832-.271 1.199l.008-.021c-.231.463-.616.82-1.087 1.01l-.014.005c-.459.243-1.001.393-1.576.411h-.006c-1.1-.146-2.094-.484-2.988-.982l.043.022c-1.022-.468-1.895-1.083-2.636-1.829l-.001-.001c-.824-.857-1.579-1.795-2.248-2.794l-.047-.074c-.636-.829-1.041-1.866-1.1-2.995l-.001-.013v-.124c.032-.975.468-1.843 1.144-2.447l.003-.003c.207-.206.491-.335.805-.341h.001c.101.003.198.011.292.025l-.013-.002c.087.013.188.021.292.023h.003c.019-.002.04-.003.062-.003.13 0 .251.039.352.105l-.002-.001c.107.118.189.261.238.418l.002.008q.124.31.512 1.364c.135.314.267.701.373 1.099l.014.063c-.076.361-.268.668-.533.889l-.003.002q-.535.566-.535.72c.004.088.034.168.081.234l-.001-.001c.405.829.936 1.533 1.576 2.119l.005.005c.675.609 1.446 1.132 2.282 1.54l.059.026c.097.063.213.103.339.109h.002q.233 0 .838-.752t.804-.752zm-3.147 8.216h.022c1.357 0 2.647-.285 3.814-.799l-.061.024c2.356-.994 4.193-2.831 5.163-5.124l.024-.063c.49-1.113.775-2.411.775-3.775s-.285-2.662-.799-3.837l.024.062c-.994-2.356-2.831-4.193-5.124-5.163l-.063-.024c-1.113-.49-2.411-.775-3.775-.775s-2.662.285-3.837.799l.062-.024c-2.356.994-4.193 2.831-5.163 5.124l-.024.063c-.49 1.117-.775 2.419-.775 3.787 0 2.141.698 4.12 1.879 5.72l-.019-.026-1.225 3.613 3.752-1.194c1.49 1.01 3.327 1.612 5.305 1.612h.047zm0-21.426h.033c1.628 0 3.176.342 4.575.959l-.073-.029c2.825 1.197 5.028 3.4 6.196 6.149l.029.076c.588 1.337.93 2.896.93 4.535s-.342 3.198-.959 4.609l.029-.074c-1.197 2.825-3.4 5.028-6.149 6.196l-.076.029c-1.327.588-2.875.93-4.503.93-.011 0-.023 0-.034 0h.002c-.016 0-.034 0-.053 0-2.059 0-3.992-.541-5.664-1.488l.057.03-6.465 2.078 2.109-6.279c-1.051-1.714-1.674-3.789-1.674-6.01 0-1.646.342-3.212.959-4.631l-.029.075c1.197-2.825 3.4-5.028 6.149-6.196l.076-.029c1.327-.588 2.875-.93 4.503-.93h.033-.002z"></path>
  </symbol>
</svg>